<svg xmlns="http://www.w3.org/2000/svg" viewBox="0 0 900 520" width="900" height="520" role="img" aria-label="entra.microsoft.com/.../qvo-voice-agent/permissions">
    <defs>
      <linearGradient id="bg" x1="0" x2="0" y1="0" y2="1">
        <stop offset="0%" stop-color="#f8fafc"/>
        <stop offset="100%" stop-color="#eef2f7"/>
      </linearGradient>
      <filter id="shadow" x="-5%" y="-5%" width="110%" height="115%">
        <feDropShadow dx="0" dy="2" stdDeviation="4" flood-color="#0f172a" flood-opacity="0.08"/>
      </filter>
      <marker id="arrow" viewBox="0 0 10 10" refX="9" refY="5" markerWidth="8" markerHeight="8" orient="auto">
        <path d="M0,0 L10,5 L0,10 z" fill="#dc2626"/>
      </marker>
    </defs>
    <rect width="900" height="520" rx="14" fill="url(#bg)"/>
    <!-- Browser chrome -->
    <rect x="14" y="14" width="872" height="36" rx="8" fill="#e2e8f0"/>
    <circle cx="34" cy="32" r="5" fill="#ef4444"/>
    <circle cx="50" cy="32" r="5" fill="#f59e0b"/>
    <circle cx="66" cy="32" r="5" fill="#22c55e"/>
    <rect x="86" y="22" width="790" height="20" rx="6" fill="#ffffff"/>
    <text x="98" y="36" font-family="ui-monospace, monospace" font-size="11" fill="#64748b">entra.microsoft.com/.../qvo-voice-agent/permissions</text>
    <!-- App header -->
    <rect x="14" y="58" width="872" height="46" rx="8" fill="#0078d4"/>
    <text x="34" y="86" font-family="ui-sans-serif, system-ui, sans-serif" font-size="18" font-weight="700" fill="#ffffff">QVO Voice Agent · API permissions</text>
    <!-- Body container -->
    <rect x="14" y="116" width="872" height="390" rx="10" fill="#ffffff" stroke="#e2e8f0" filter="url(#shadow)"/>
    
    <text x="36" y="156" font-family="ui-sans-serif, system-ui, sans-serif" font-size="16" font-weight="700" fill="#0f172a">Configured permissions</text>
    <text x="36" y="178" font-family="ui-sans-serif, system-ui, sans-serif" font-size="12" fill="#64748b">Microsoft Graph · Delegated</text>
    <rect x="36" y="200" width="828" height="200" rx="8" fill="#f8fafc" stroke="#e2e8f0"/>
    <rect x="56" y="222" width="16" height="16" rx="3" fill="#0f172a" stroke="#dc2626" stroke-width="2"/>
    <path d="M59 230 L63 234 L69 226" stroke="#ffffff" stroke-width="2" fill="none" stroke-linecap="round" stroke-linejoin="round"/>
    <text x="80" y="234" font-family="ui-monospace, monospace" font-size="11" fill="#0f172a">Calendars.ReadWrite — Read/write user calendars</text>
    <rect x="56" y="254" width="16" height="16" rx="3" fill="#0f172a" stroke="#dc2626" stroke-width="2"/>
    <path d="M59 262 L63 266 L69 258" stroke="#ffffff" stroke-width="2" fill="none" stroke-linecap="round" stroke-linejoin="round"/>
    <text x="80" y="266" font-family="ui-monospace, monospace" font-size="11" fill="#0f172a">offline_access — Maintain access to data</text>
    <rect x="56" y="286" width="16" height="16" rx="3" fill="#0f172a" stroke="#dc2626" stroke-width="2"/>
    <path d="M59 294 L63 298 L69 290" stroke="#ffffff" stroke-width="2" fill="none" stroke-linecap="round" stroke-linejoin="round"/>
    <text x="80" y="298" font-family="ui-monospace, monospace" font-size="11" fill="#0f172a">openid — Sign users in</text>
    <rect x="56" y="318" width="16" height="16" rx="3" fill="#0f172a" stroke="#dc2626" stroke-width="2"/>
    <path d="M59 326 L63 330 L69 322" stroke="#ffffff" stroke-width="2" fill="none" stroke-linecap="round" stroke-linejoin="round"/>
    <text x="80" y="330" font-family="ui-monospace, monospace" font-size="11" fill="#0f172a">profile — View user basic profile</text>
    <rect x="56" y="350" width="16" height="16" rx="3" fill="#0f172a" stroke="#dc2626" stroke-width="2"/>
    <path d="M59 358 L63 362 L69 354" stroke="#ffffff" stroke-width="2" fill="none" stroke-linecap="round" stroke-linejoin="round"/>
    <text x="80" y="362" font-family="ui-monospace, monospace" font-size="11" fill="#0f172a">User.Read — Sign in and read user profile</text>
    <rect x="36" y="420" width="250" height="36" rx="6" fill="#16a34a"/>
    <text x="161" y="442" text-anchor="middle" font-family="ui-sans-serif, system-ui, sans-serif" font-size="12" font-weight="600" fill="#ffffff">✓ Grant admin consent for Acme</text>
    <g>
      <rect x="460" y="420" width="380" height="46" rx="6" fill="#fee2e2" stroke="#dc2626"/>
      <text font-family="ui-sans-serif, system-ui, sans-serif" font-size="11" font-weight="600" fill="#991b1b" y="420"><tspan x="472" dy="18">Click Grant admin consent so users</tspan><tspan x="472" dy="16">do not have to approve each scope</tspan></text>
    </g>
    <line x1="460" y1="444" x2="290" y2="444" stroke="#dc2626" stroke-width="2" marker-end="url(#arrow)"/>
    
  </svg>