<svg xmlns="http://www.w3.org/2000/svg" viewBox="0 0 900 520" width="900" height="520" role="img" aria-label="app.qvo.ai/integrations/quickbooks">
    <defs>
      <linearGradient id="bg" x1="0" x2="0" y1="0" y2="1">
        <stop offset="0%" stop-color="#f8fafc"/>
        <stop offset="100%" stop-color="#eef2f7"/>
      </linearGradient>
      <filter id="shadow" x="-5%" y="-5%" width="110%" height="115%">
        <feDropShadow dx="0" dy="2" stdDeviation="4" flood-color="#0f172a" flood-opacity="0.08"/>
      </filter>
      <marker id="arrow" viewBox="0 0 10 10" refX="9" refY="5" markerWidth="8" markerHeight="8" orient="auto">
        <path d="M0,0 L10,5 L0,10 z" fill="#dc2626"/>
      </marker>
    </defs>
    <rect width="900" height="520" rx="14" fill="url(#bg)"/>
    <!-- Browser chrome -->
    <rect x="14" y="14" width="872" height="36" rx="8" fill="#e2e8f0"/>
    <circle cx="34" cy="32" r="5" fill="#ef4444"/>
    <circle cx="50" cy="32" r="5" fill="#f59e0b"/>
    <circle cx="66" cy="32" r="5" fill="#22c55e"/>
    <rect x="86" y="22" width="790" height="20" rx="6" fill="#ffffff"/>
    <text x="98" y="36" font-family="ui-monospace, monospace" font-size="11" fill="#64748b">app.qvo.ai/integrations/quickbooks</text>
    <!-- App header -->
    <rect x="14" y="58" width="872" height="46" rx="8" fill="#0f766e"/>
    <text x="34" y="86" font-family="ui-sans-serif, system-ui, sans-serif" font-size="18" font-weight="700" fill="#ffffff">QVO · Integrations › QuickBooks</text>
    <!-- Body container -->
    <rect x="14" y="116" width="872" height="390" rx="10" fill="#ffffff" stroke="#e2e8f0" filter="url(#shadow)"/>
    
    <circle cx="60" cy="160" r="14" fill="#dcfce7"/>
    <path d="M54 160 L58 164 L66 156" stroke="#16a34a" stroke-width="2.5" fill="none" stroke-linecap="round"/>
    <text x="84" y="164" font-family="ui-sans-serif, system-ui, sans-serif" font-size="16" font-weight="700" fill="#0f172a">Connected — Acme Plumbing</text>
    <text x="84" y="184" font-family="ui-sans-serif, system-ui, sans-serif" font-size="12" fill="#64748b">Realm 4620816374521098 · Production · Refresh expires Aug 3, 2026</text>
    <text x="36" y="224" font-family="ui-sans-serif, system-ui, sans-serif" font-size="14" font-weight="700" fill="#0f172a">Auto-invoicing</text>
    <text x="36" y="242" font-family="ui-sans-serif, system-ui, sans-serif" font-size="11" font-weight="600" fill="#475569">Invoice Item ID</text>
    <rect x="36" y="250" width="410" height="34" rx="6" fill="#f8fafc" stroke="#cbd5e1" stroke-width="1"/>
    <text x="48" y="272" font-family="ui-monospace, monospace" font-size="12" font-weight="400" fill="#0f172a">7</text>
    <text x="466" y="242" font-family="ui-sans-serif, system-ui, sans-serif" font-size="11" font-weight="600" fill="#475569">Item description</text>
    <rect x="466" y="250" width="410" height="34" rx="6" fill="#f8fafc" stroke="#cbd5e1" stroke-width="1"/>
    <text x="478" y="272" font-family="ui-monospace, monospace" font-size="12" font-weight="400" fill="#0f172a">Standard Service Call</text>
    <text x="36" y="314" font-family="ui-sans-serif, system-ui, sans-serif" font-size="11" font-weight="600" fill="#475569">Default invoice amount</text>
    <rect x="36" y="322" width="410" height="34" rx="6" fill="#f8fafc" stroke="#cbd5e1" stroke-width="1"/>
    <text x="48" y="344" font-family="ui-monospace, monospace" font-size="12" font-weight="400" fill="#0f172a">$129.00</text>
    <text x="466" y="314" font-family="ui-sans-serif, system-ui, sans-serif" font-size="11" font-weight="600" fill="#475569">Send invoice via</text>
    <rect x="466" y="322" width="410" height="34" rx="6" fill="#f8fafc" stroke="#cbd5e1" stroke-width="1"/>
    <text x="478" y="344" font-family="ui-monospace, monospace" font-size="12" font-weight="400" fill="#0f172a">Email · automatic</text>
    <rect x="36" y="410" width="150" height="36" rx="6" fill="#0f172a"/>
    <text x="111" y="432" text-anchor="middle" font-family="ui-sans-serif, system-ui, sans-serif" font-size="12" font-weight="600" fill="#ffffff">Save</text>
    <rect x="196" y="410" width="130" height="36" rx="6" fill="#475569"/>
    <text x="261" y="432" text-anchor="middle" font-family="ui-sans-serif, system-ui, sans-serif" font-size="12" font-weight="600" fill="#ffffff">Sync now</text>
    <g>
      <rect x="460" y="410" width="360" height="30" rx="6" fill="#fee2e2" stroke="#dc2626"/>
      <text font-family="ui-sans-serif, system-ui, sans-serif" font-size="11" font-weight="600" fill="#991b1b" y="410"><tspan x="472" dy="18">Trigger Sync now to verify a draft invoice posts</tspan></text>
    </g>
    
  </svg>